<svg xmlns="http://www.w3.org/2000/svg" xmlns:xlink="http://www.w3.org/1999/xlink" width="22" height="22" viewBox="0 0 22 22"><defs><path id="17lpa" d="M1295.896 54.19l-1.709 1.708a.298.298 0 0 1-.425 0l-6.34-6.34v.001a8.51 8.51 0 0 1-4.883 1.531 8.548 8.548 0 1 1 0-17.095 8.548 8.548 0 0 1 7.017 13.43l6.34 6.34a.305.305 0 0 1 0 .425zm-6.82-11.647a6.537 6.537 0 0 0-6.537-6.536 6.537 6.537 0 1 0 6.537 6.536z"/></defs><g><g transform="translate(-1274 -34)"><use fill="#fff" xlink:href="#17lpa"/></g></g></svg>